<svg width="24" height="24" viewBox="0 0 24 24" fill="none" xmlns="http://www.w3.org/2000/svg">
<path d="M11.6667 21C14.142 21 16.516 20.0167 18.2663 18.2663C20.0167 16.516 21 14.142 21 11.6667C21 9.19131 20.0167 6.81734 18.2663 5.067C16.516 3.31666 14.142 2.33333 11.6667 2.33333C9.19131 2.33333 6.81734 3.31666 5.067 5.067C3.31666 6.81734 2.33333 9.19131 2.33333 11.6667C2.33333 14.142 3.31666 16.516 5.067 18.2663C6.81734 20.0167 9.19131 21 11.6667 21ZM11.6667 0C13.1988 0 14.7158 0.301767 16.1313 0.888072C17.5468 1.47438 18.8329 2.33374 19.9162 3.41709C20.9996 4.50044 21.859 5.78656 22.4453 7.20203C23.0316 8.61749 23.3333 10.1346 23.3333 11.6667C23.3333 14.7609 22.1042 17.7283 19.9162 19.9162C17.7283 22.1042 14.7609 23.3333 11.6667 23.3333C5.215 23.3333 0 18.0833 0 11.6667C0 8.57247 1.22916 5.60501 3.41709 3.41709C5.60501 1.22916 8.57247 0 11.6667 0ZM12.25 5.83333V11.9583L17.5 15.0733L16.625 16.5083L10.5 12.8333V5.83333H12.25Z" fill="#FA8F14"/>
</svg>
