<svg width="24" height="29" viewBox="0 0 24 29" fill="none" xmlns="http://www.w3.org/2000/svg">
<path d="M11.6407 13.4118C10.0379 12.2268 7.63571 10.1546 0.748572 10.1546V24.9918C7.63571 24.9918 10.0379 27.0639 11.6407 28.2489M11.6407 13.4118V28.2489M11.6407 13.4118C13.2436 12.2268 15.6457 10.1546 22.5329 10.1546V24.9918C15.6457 24.9918 13.2436 27.0639 11.6407 28.2489M15.8964 0.616756V5.82818M19.7043 0.501042H5.39643C4.99669 0.500556 4.60478 0.611893 4.265 0.82247L0.5 3.16676L4.265 5.50676C4.60478 5.71733 4.99669 5.82867 5.39643 5.82818H19.7043C20.0603 5.83829 20.4147 5.77689 20.7466 5.64763C21.0784 5.51837 21.381 5.32387 21.6364 5.07564C21.8917 4.8274 22.0947 4.53047 22.2334 4.20241C22.372 3.87435 22.4434 3.52183 22.4434 3.16568C22.4434 2.80954 22.372 2.45701 22.2334 2.12896C22.0947 1.8009 21.8917 1.50397 21.6364 1.25573C21.381 1.0075 21.0784 0.813 20.7466 0.68374C20.4147 0.554479 20.0603 0.490941 19.7043 0.501042Z" stroke="white" stroke-linecap="round" stroke-linejoin="round"/>
</svg>
