<svg xmlns="http://www.w3.org/2000/svg" xmlns:xlink="http://www.w3.org/1999/xlink" width="1280" zoomAndPan="magnify" viewBox="0 0 960 959.999988" height="1280" preserveAspectRatio="xMidYMid meet" version="1.0"><path fill="#04599d" d="M 159.820312 639.28125 L 250.902344 645.351562 L 341.980469 669.632812 L 433.0625 718.195312 L 493.78125 766.757812 L 518.066406 766.757812 L 578.789062 718.195312 L 675.9375 669.632812 L 754.875 645.351562 L 803.449219 639.28125 L 882.386719 639.28125 L 876.3125 651.421875 L 803.449219 669.632812 L 900.601562 693.914062 L 930.960938 706.054688 L 930.960938 712.125 L 833.808594 712.125 L 718.441406 724.265625 L 621.292969 754.617188 L 536.285156 797.109375 L 511.996094 815.320312 L 481.636719 803.179688 L 433.0625 772.828125 L 366.269531 742.476562 L 256.972656 718.195312 L 86.957031 712.125 L 99.101562 699.984375 L 202.324219 675.703125 L 214.46875 669.632812 L 141.605469 651.421875 Z M 159.820312 639.28125 " fill-opacity="1" fill-rule="nonzero"/><path fill="#182e60" d="M 712.371094 305.414062 L 730.585938 329.695312 L 742.730469 390.398438 L 736.660156 457.171875 L 724.515625 493.59375 L 791.308594 469.3125 L 809.523438 475.382812 L 791.308594 536.085938 L 736.660156 554.296875 L 639.507812 596.789062 L 578.789062 645.351562 L 548.429688 675.703125 L 518.066406 712.125 L 511.996094 699.984375 L 554.5 633.210938 L 609.148438 566.4375 L 663.796875 505.734375 L 700.226562 432.890625 L 706.300781 402.539062 Z M 712.371094 305.414062 " fill-opacity="1" fill-rule="nonzero"/><path fill="#182f61" d="M 299.476562 299.34375 L 305.550781 317.554688 L 305.550781 390.398438 L 323.765625 457.171875 L 360.195312 517.875 L 402.699219 560.367188 L 481.636719 663.5625 L 493.78125 699.984375 L 463.421875 669.632812 L 420.917969 627.140625 L 341.980469 578.578125 L 281.261719 554.296875 L 226.613281 542.15625 L 208.398438 487.523438 L 208.398438 469.3125 L 238.757812 475.382812 L 287.332031 487.523438 L 275.191406 445.03125 L 275.191406 366.117188 Z M 299.476562 299.34375 " fill-opacity="1" fill-rule="nonzero"/><path fill="#f68b18" d="M 360.195312 353.976562 L 390.558594 366.117188 L 481.636719 402.539062 L 530.210938 402.539062 L 633.4375 360.046875 L 651.652344 360.046875 L 603.074219 402.539062 L 560.570312 463.242188 L 530.210938 554.296875 L 511.996094 651.421875 L 499.851562 627.140625 L 469.492188 499.664062 L 439.132812 438.960938 L 390.558594 384.328125 Z M 360.195312 353.976562 " fill-opacity="1" fill-rule="nonzero"/><path fill="#183063" d="M 499.851562 159.726562 L 615.21875 214.359375 L 639.507812 232.570312 L 524.140625 293.273438 L 487.707031 287.203125 L 433.0625 256.851562 L 457.347656 238.640625 L 439.132812 238.640625 L 396.628906 244.710938 L 372.339844 226.5 Z M 499.851562 159.726562 " fill-opacity="1" fill-rule="nonzero"/><path fill="#f38b19" d="M 833.808594 554.296875 L 852.027344 554.296875 L 833.808594 615 L 706.300781 639.28125 L 627.363281 669.632812 L 572.714844 699.984375 L 548.429688 712.125 L 584.859375 663.5625 L 645.578125 615 L 724.515625 578.578125 L 791.308594 560.367188 Z M 833.808594 554.296875 " fill-opacity="1" fill-rule="nonzero"/><path fill="#f58b1a" d="M 159.820312 554.296875 L 244.828125 566.4375 L 329.835938 596.789062 L 396.628906 633.210938 L 457.347656 693.914062 L 451.277344 706.054688 L 390.558594 669.632812 L 311.621094 639.28125 L 220.542969 621.070312 L 178.039062 608.929688 Z M 159.820312 554.296875 " fill-opacity="1" fill-rule="nonzero"/><path fill="#f58b18" d="M 445.203125 287.203125 L 499.851562 305.414062 L 530.210938 299.34375 L 566.644531 287.203125 L 566.644531 329.695312 L 536.285156 366.117188 L 524.140625 372.1875 L 487.707031 372.1875 L 457.347656 347.90625 L 445.203125 311.484375 Z M 445.203125 287.203125 " fill-opacity="1" fill-rule="nonzero"/><path fill="#a23334" d="M 402.699219 275.0625 L 408.773438 275.0625 L 408.773438 329.695312 L 396.628906 329.695312 L 396.628906 287.203125 Z M 402.699219 275.0625 " fill-opacity="1" fill-rule="nonzero"/><path fill="#17284c" d="M 499.851562 712.125 L 511.996094 712.125 L 511.996094 724.265625 L 499.851562 724.265625 Z M 499.851562 712.125 " fill-opacity="1" fill-rule="nonzero"/></svg>