<svg width="25" height="25" viewBox="0 0 25 25" fill="none" xmlns="http://www.w3.org/2000/svg">
<path d="M12.5 25C10.7708 25 9.14584 24.6717 7.625 24.015C6.10417 23.3583 4.78125 22.4679 3.65625 21.3438C2.53125 20.2196 1.64084 18.8967 0.985002 17.375C0.329168 15.8533 0.000834916 14.2283 1.58228e-06 12.5C-0.000831751 10.7717 0.327502 9.14667 0.985002 7.625C1.6425 6.10333 2.53292 4.78042 3.65625 3.65625C4.77958 2.53208 6.1025 1.64167 7.625 0.985C9.1475 0.328333 10.7725 0 12.5 0C14.2275 0 15.8525 0.328333 17.375 0.985C18.8975 1.64167 20.2204 2.53208 21.3438 3.65625C22.4671 4.78042 23.3579 6.10333 24.0163 7.625C24.6746 9.14667 25.0025 10.7717 25 12.5C24.9975 14.2283 24.6692 15.8533 24.015 17.375C23.3608 18.8967 22.4704 20.2196 21.3438 21.3438C20.2171 22.4679 18.8942 23.3587 17.375 24.0162C15.8558 24.6737 14.2308 25.0017 12.5 25ZM12.5 22.5C15.2917 22.5 17.6562 21.5312 19.5938 19.5938C21.5312 17.6562 22.5 15.2917 22.5 12.5C22.5 9.70833 21.5312 7.34375 19.5938 5.40625C17.6562 3.46875 15.2917 2.5 12.5 2.5C9.70833 2.5 7.34375 3.46875 5.40625 5.40625C3.46875 7.34375 2.5 9.70833 2.5 12.5C2.5 15.2917 3.46875 17.6562 5.40625 19.5938C7.34375 21.5312 9.70833 22.5 12.5 22.5ZM12.5 20C10.4167 20 8.64583 19.2708 7.1875 17.8125C5.72917 16.3542 5 14.5833 5 12.5C5 10.4167 5.72917 8.64583 7.1875 7.1875C8.64583 5.72917 10.4167 5 12.5 5C14.5833 5 16.3542 5.72917 17.8125 7.1875C19.2708 8.64583 20 10.4167 20 12.5C20 14.5833 19.2708 16.3542 17.8125 17.8125C16.3542 19.2708 14.5833 20 12.5 20ZM12.5 17.5C13.875 17.5 15.0521 17.0104 16.0312 16.0312C17.0104 15.0521 17.5 13.875 17.5 12.5C17.5 11.125 17.0104 9.94792 16.0312 8.96875C15.0521 7.98958 13.875 7.5 12.5 7.5C11.125 7.5 9.94792 7.98958 8.96875 8.96875C7.98959 9.94792 7.5 11.125 7.5 12.5C7.5 13.875 7.98959 15.0521 8.96875 16.0312C9.94792 17.0104 11.125 17.5 12.5 17.5ZM12.5 15C11.8125 15 11.2242 14.7554 10.735 14.2663C10.2458 13.7771 10.0008 13.1883 10 12.5C9.99917 11.8117 10.2442 11.2233 10.735 10.735C11.2258 10.2467 11.8142 10.0017 12.5 10C13.1858 9.99833 13.7746 10.2433 14.2663 10.735C14.7579 11.2267 15.0025 11.815 15 12.5C14.9975 13.185 14.7529 13.7738 14.2663 14.2663C13.7796 14.7587 13.1908 15.0033 12.5 15Z" fill="#FA8F14"/>
</svg>
