<svg width="40" height="40" viewBox="0 0 40 40" fill="none" xmlns="http://www.w3.org/2000/svg">
<path d="M25.7946 21.4834L28.3196 35.6934C28.3479 35.8607 28.3244 36.0327 28.2523 36.1863C28.1802 36.3399 28.0629 36.4679 27.9161 36.5531C27.7694 36.6382 27.6001 36.6766 27.4309 36.6629C27.2618 36.6493 27.1008 36.5843 26.9696 36.4767L21.0029 31.9984C20.7149 31.7832 20.365 31.6669 20.0054 31.6669C19.6459 31.6669 19.296 31.7832 19.0079 31.9984L13.0313 36.4751C12.9001 36.5825 12.7394 36.6473 12.5704 36.661C12.4015 36.6746 12.2324 36.6364 12.0857 36.5515C11.939 36.4666 11.8217 36.3389 11.7495 36.1856C11.6772 36.0323 11.6534 35.8606 11.6813 35.6934L14.2046 21.4834" stroke="#9810FA" stroke-width="3.33333" stroke-linecap="round" stroke-linejoin="round"/>
<path d="M20 23.333C25.5228 23.333 30 18.8559 30 13.333C30 7.81016 25.5228 3.33301 20 3.33301C14.4772 3.33301 10 7.81016 10 13.333C10 18.8559 14.4772 23.333 20 23.333Z" stroke="#9810FA" stroke-width="3.33333" stroke-linecap="round" stroke-linejoin="round"/>
</svg>
