<svg width="14" height="14" viewBox="0 0 14 14" fill="none" xmlns="http://www.w3.org/2000/svg">
<g clip-path="url(#clip0_1_3448)">
<path d="M0 6.99984H4.66667M4.66667 6.99984C4.66667 6.381 4.9125 5.78751 5.35008 5.34992C5.78767 4.91234 6.38116 4.6665 7 4.6665C7.61884 4.6665 8.21233 4.91234 8.64992 5.34992C9.0875 5.78751 9.33333 6.381 9.33333 6.99984M4.66667 6.99984C4.66667 7.61868 4.9125 8.21217 5.35008 8.64975C5.78767 9.08734 6.38116 9.33317 7 9.33317C7.61884 9.33317 8.21233 9.08734 8.64992 8.64975C9.0875 8.21217 9.33333 7.61868 9.33333 6.99984M9.33333 6.99984H14" stroke="#3B82F6" stroke-width="1.75"/>
</g>
<defs>
<clipPath id="clip0_1_3448">
<rect width="14" height="14" fill="white"/>
</clipPath>
</defs>
</svg>
